<svg width="20" height="20" viewBox="0 0 20 20" fill="none" xmlns="http://www.w3.org/2000/svg">
<g clip-path="url(#clip0)">
<path d="M2.2616 2.12861H4.39021V0.709549C4.39021 0.31767 4.70788 0 5.09976 0C5.49164 0 5.80931 0.31767 5.80931 0.709549V2.12861H14.3237V0.709549C14.3237 0.31767 14.6414 0 15.0332 0C15.4251 0 15.7428 0.31767 15.7428 0.709549V2.12861H17.8714C19.047 2.12861 20 3.08161 20 4.25721V17.7384C20 18.914 19.047 19.867 17.8714 19.867H2.2616C1.08601 19.867 0.132996 18.914 0.132996 17.7384V4.25721C0.132996 3.08161 1.08601 2.12861 2.2616 2.12861ZM1.5521 17.7384C1.5521 18.1303 1.86976 18.4479 2.26164 18.4479H17.8714C18.2633 18.4479 18.5809 18.1303 18.5809 17.7384V8.51442H1.5521V17.7384ZM1.5521 7.09537H18.5809V4.25721C18.5809 3.86533 18.2633 3.54766 17.8714 3.54766H15.7428V4.96672C15.7428 5.3586 15.4251 5.67627 15.0332 5.67627C14.6414 5.67627 14.3237 5.3586 14.3237 4.96672V3.54766H5.80927V4.96672C5.80927 5.3586 5.4916 5.67627 5.09972 5.67627C4.70784 5.67627 4.39017 5.3586 4.39017 4.96672V3.54766H2.26156C1.86968 3.54766 1.55201 3.86533 1.55201 4.25721V7.09537H1.5521Z" fill="#15113B"/>
<path d="M14.3238 9.93347H15.7428C16.1347 9.93347 16.4524 10.2511 16.4524 10.643C16.4524 11.0349 16.1347 11.3526 15.7428 11.3526H14.3238C13.9319 11.3526 13.6142 11.0349 13.6142 10.643C13.6142 10.2511 13.9319 9.93347 14.3238 9.93347Z" fill="#15113B"/>
<path d="M9.35699 9.93347H10.776C11.1679 9.93347 11.4856 10.2511 11.4856 10.643C11.4856 11.0349 11.1679 11.3526 10.776 11.3526H9.35699C8.96511 11.3526 8.64744 11.0349 8.64744 10.643C8.64744 10.2511 8.96511 9.93347 9.35699 9.93347Z" fill="#15113B"/>
<path d="M4.39019 9.93347H5.80925C6.20113 9.93347 6.5188 10.2511 6.5188 10.643C6.5188 11.0349 6.20113 11.3526 5.80925 11.3526H4.39019C3.99831 11.3526 3.68064 11.0349 3.68064 10.643C3.68069 10.2511 3.99835 9.93347 4.39019 9.93347Z" fill="#15113B"/>
<path d="M14.3238 12.7716H15.7428C16.1347 12.7716 16.4524 13.0893 16.4524 13.4812C16.4524 13.873 16.1347 14.1907 15.7428 14.1907H14.3238C13.9319 14.1907 13.6142 13.873 13.6142 13.4812C13.6142 13.0893 13.9319 12.7716 14.3238 12.7716Z" fill="#15113B"/>
<path d="M9.35699 12.7716H10.776C11.1679 12.7716 11.4856 13.0893 11.4856 13.4812C11.4856 13.873 11.1679 14.1907 10.776 14.1907H9.35699C8.96511 14.1907 8.64744 13.873 8.64744 13.4812C8.64744 13.0893 8.96511 12.7716 9.35699 12.7716Z" fill="#15113B"/>
<path d="M4.39019 12.7716H5.80925C6.20113 12.7716 6.5188 13.0893 6.5188 13.4812C6.5188 13.873 6.20113 14.1907 5.80925 14.1907H4.39019C3.99831 14.1907 3.68064 13.873 3.68064 13.4812C3.68069 13.0893 3.99835 12.7716 4.39019 12.7716Z" fill="#15113B"/>
<path d="M14.3238 15.6097H15.7428C16.1347 15.6097 16.4524 15.9274 16.4524 16.3193C16.4524 16.7112 16.1347 17.0288 15.7428 17.0288H14.3238C13.9319 17.0288 13.6142 16.7111 13.6142 16.3192C13.6142 15.9274 13.9319 15.6097 14.3238 15.6097Z" fill="#15113B"/>
<path d="M9.35699 15.6097H10.776C11.1679 15.6097 11.4856 15.9274 11.4856 16.3193C11.4856 16.7112 11.1679 17.0288 10.776 17.0288H9.35699C8.96511 17.0288 8.64744 16.7112 8.64744 16.3193C8.64744 15.9274 8.96511 15.6097 9.35699 15.6097Z" fill="#15113B"/>
<path d="M4.39019 15.6097H5.80925C6.20113 15.6097 6.5188 15.9274 6.5188 16.3193C6.5188 16.7112 6.20113 17.0288 5.80925 17.0288H4.39019C3.99831 17.0288 3.68064 16.7112 3.68064 16.3193C3.68064 15.9274 3.99835 15.6097 4.39019 15.6097Z" fill="#15113B"/>
</g>
<defs>
<clipPath id="clip0">
<rect width="19.867" height="19.867" fill="white" transform="matrix(-1 0 0 1 20 0)"/>
</clipPath>
</defs>
</svg>
