<svg width="22" height="22" viewBox="0 0 22 22" fill="none" xmlns="http://www.w3.org/2000/svg">
<path fill-rule="evenodd" clip-rule="evenodd" d="M13.08 1H8.92003V6.92H13.08V1ZM8.92003 0H7.92003V1V6.92V7.92H8.92003H10.56V13.2H8.92003H7.92003V14.2V20.12V21.12H8.92003H13.08H14.08V20.12V17.6H15.84V20.12V21.12H16.84H21H22V20.12V14.2V13.2H21H16.84H15.84V14.2V16.72H14.08V14.2V13.2H13.08H11.44V7.92H13.08H14.08V6.92V1V0H13.08H8.92003ZM6.16 17.6V20.12V21.12H5.16H1H0V20.12V14.2V13.2H1H5.16H6.16V14.2V16.72H7.92002V17.6H6.16ZM1 14.2H5.16V20.12H1V14.2ZM13.08 14.2H8.92003V20.12H13.08V14.2ZM16.84 14.2H21V20.12H16.84V14.2Z" fill="#15113B"/>
</svg>
