<svg width="24" height="23" viewBox="0 0 24 23" fill="none" xmlns="http://www.w3.org/2000/svg">
<path d="M23.5941 9.7837L21.8124 8.26193L12.3203 0.152177C12.0857 -0.0507256 11.737 -0.0507256 11.4961 0.152177L2.00402 8.26193L0.222287 9.7837C-0.0440224 10.012 -0.0757261 10.4114 0.152539 10.6777C0.374464 10.944 0.767587 10.9758 1.02756 10.7538L1.0339 10.7475L1.82648 10.0627V21.9515C1.83283 22.3066 2.1245 22.5983 2.47958 22.6046H21.3305C21.6856 22.5983 21.9772 22.3129 21.9836 21.9515V10.0627L22.7762 10.7475C22.8903 10.8426 23.0298 10.8997 23.182 10.8997C23.3658 10.8997 23.5434 10.8172 23.6639 10.6777C23.8985 10.4051 23.8604 10.0056 23.5941 9.7837ZM14.4445 21.3301H9.37192V14.4822H14.4445V21.3301ZM15.7126 21.3301V13.8671C15.7126 13.5184 15.4527 13.214 15.1039 13.214H8.71249C8.36375 13.214 8.10378 13.5184 8.10378 13.8671V21.3301H3.09462V8.97843L11.9082 1.47104L20.7218 8.97843V21.3301H15.7126Z" fill="#15113B"/>
<line x1="2.64087" y1="8.64954" x2="21.259" y2="8.64954" stroke="#15113B"/>
</svg>
