<svg width="22" height="16" viewBox="0 0 22 16" fill="none" xmlns="http://www.w3.org/2000/svg">
<path d="M5.14813 12.5187C4.15251 12.5187 3.1674 12.4681 2.18896 12.532C1.01675 12.6084 0.020175 11.5794 0.0020381 10.3403C-0.0208716 8.78249 0.32182 7.40599 1.5389 6.35692C1.8835 6.06005 2.28728 5.83191 2.66243 5.57322C1.28307 4.12322 1.78995 2.45654 2.65288 1.67952C3.69814 0.73736 5.20731 0.734496 6.23443 1.71293C7.1365 2.573 7.50783 4.21486 6.20675 5.54172C6.68308 5.91686 7.1575 6.30346 7.64911 6.66811C7.73597 6.73207 7.91162 6.75307 8.00994 6.71011C8.34117 6.56502 8.65523 6.38269 9.03037 6.18605C8.01757 5.34889 7.52597 4.296 7.66629 3.0016C7.75888 2.14822 8.14453 1.4237 8.79364 0.858591C10.1711 -0.339396 12.1919 -0.271622 13.4615 1.00273C14.88 2.426 14.7521 4.31128 13.093 6.2061C13.4615 6.3932 13.8252 6.57743 14.1669 6.75116C14.7072 6.35501 15.2418 5.96364 15.8031 5.55222C15.1749 4.91647 14.8323 4.12513 14.9955 3.15911C15.1034 2.51764 15.4107 2.00026 15.909 1.59266C16.9858 0.711587 18.43 0.785089 19.4113 1.74539C20.2151 2.53195 20.6847 4.14041 19.3016 5.60567C20.2962 6.08296 21.0723 6.78361 21.5467 7.78782C22.025 8.80253 22.1032 9.87643 21.8894 10.9522C21.6928 11.9431 20.8995 12.5168 19.8953 12.5196C18.957 12.5225 18.0186 12.5225 17.0793 12.5254C17.0488 12.5254 17.0192 12.5397 16.9571 12.555C16.9132 12.8337 16.8865 13.1296 16.8197 13.416C16.5304 14.6541 15.5062 15.4626 14.2423 15.4635C12.1585 15.4635 10.0728 15.412 7.99084 15.4826C6.74036 15.5256 5.28177 14.6073 5.1825 12.8461C5.17486 12.7535 5.16245 12.6609 5.14813 12.5187ZM11.0493 14.5099C12.0984 14.5099 13.1484 14.5109 14.1975 14.5099C15.1043 14.509 15.8298 13.962 15.9147 13.0599C16.0722 11.3751 15.8536 9.77524 14.6538 8.43311C12.9059 6.47911 9.83126 6.29583 7.88011 8.00833C6.33371 9.36573 6.01106 11.1145 6.1743 13.0179C6.25543 13.9677 6.97518 14.5099 7.94884 14.5099C8.98264 14.5109 10.0155 14.5109 11.0493 14.5099ZM7.02291 7.44131C6.03397 6.30442 4.55916 5.93118 3.21894 6.43997C1.55894 7.06999 0.554735 9.00108 1.00434 10.7184C1.11602 11.146 1.37853 11.5183 1.831 11.5364C2.93639 11.5813 4.04465 11.5507 5.16054 11.5507C5.27223 9.92606 5.86883 8.56484 7.02291 7.44131ZM16.9314 11.5632C17.9537 11.5632 18.935 11.5679 19.9163 11.5612C20.5234 11.5574 20.9892 11.1479 21.0055 10.5399C21.0207 9.98907 21.0303 9.41728 20.9081 8.88653C20.595 7.53486 19.7168 6.65761 18.3766 6.32542C17.0717 6.00182 15.9453 6.39224 14.9945 7.37927C16.1973 8.50852 16.8149 9.88788 16.9314 11.5632ZM11.0531 5.83095C12.4439 5.82904 13.4911 4.77806 13.4873 3.39011C13.4834 2.0623 12.3876 0.96073 11.0646 0.954048C9.72053 0.947366 8.6075 2.05562 8.60368 3.40348C8.59986 4.77806 9.66421 5.83286 11.0531 5.83095ZM2.77507 3.60203C2.77698 4.53369 3.50341 5.25535 4.43698 5.25057C5.34191 5.24675 6.06547 4.52892 6.07979 3.61921C6.09507 2.71523 5.33427 1.93535 4.43125 1.92771C3.52822 1.92103 2.77411 2.68373 2.77507 3.60203ZM19.2137 3.58007C19.209 2.68564 18.4759 1.94203 17.5843 1.92867C16.6908 1.9153 15.909 2.69041 15.9052 3.59439C15.9014 4.51173 16.6507 5.25535 17.5738 5.25153C18.5026 5.24675 19.2195 4.51651 19.2137 3.58007Z" fill="#15113B"/>
</svg>
