<svg width="22" height="20" viewBox="0 0 22 20" fill="none" xmlns="http://www.w3.org/2000/svg">
<path d="M20.9 4.13334H16.8667V3.03334C16.8651 1.6165 15.7168 0.468279 14.3 0.466675H7.7C6.28315 0.468279 5.13494 1.6165 5.13333 3.03334V4.13334H1.1C0.492479 4.13334 0 4.62582 0 5.23334V12.5667C0.001925 13.0311 0.295396 13.4444 0.733333 13.5992V18.4333C0.733333 19.0409 1.22581 19.5333 1.83333 19.5333H20.1667C20.7742 19.5333 21.2667 19.0409 21.2667 18.4333V13.5992C21.7046 13.4444 21.9981 13.0311 22 12.5667V5.23334C22 4.62582 21.5075 4.13334 20.9 4.13334ZM5.86667 3.03334C5.86786 2.02134 6.688 1.2012 7.7 1.20001H14.3C15.312 1.2012 16.1321 2.02134 16.1333 3.03334V4.13334H15.3853L15.4 3.03334C15.3988 2.42632 14.907 1.93453 14.3 1.93334H7.68643C7.07942 1.93453 6.58763 2.42632 6.58643 3.03334V3.03701L6.59633 4.13334H5.86667V3.03334ZM14.6667 3.02821L14.652 4.13334H7.32967L7.3183 3.03334C7.3183 2.83085 7.48247 2.66667 7.68497 2.66667H14.3C14.5005 2.66667 14.6639 2.82769 14.6667 3.02821ZM20.5333 18.4333C20.5333 18.6358 20.3692 18.8 20.1667 18.8H1.83333C1.63084 18.8 1.46667 18.6358 1.46667 18.4333V13.6667H4.03333V14.7667C4.03333 14.9692 4.19751 15.1333 4.4 15.1333H5.86667C6.06916 15.1333 6.23333 14.9692 6.23333 14.7667V13.6667H15.7667V14.7667C15.7667 14.9692 15.9308 15.1333 16.1333 15.1333H17.6C17.8025 15.1333 17.9667 14.9692 17.9667 14.7667V13.6667H20.5333V18.4333ZM4.76667 14.4V12.5667C4.76648 12.4678 4.80723 12.3733 4.87923 12.3056C4.94592 12.2371 5.03772 12.1989 5.13333 12.2C5.33582 12.2 5.5 12.3642 5.5 12.5667V13.3V14.4H4.76667ZM16.5 14.4V12.5667C16.5 12.3642 16.6642 12.2 16.8667 12.2C16.9656 12.1997 17.0602 12.2403 17.1281 12.3122C17.1961 12.3794 17.2341 12.4711 17.2333 12.5667V13.3V14.4H16.5ZM21.2667 12.5667C21.2667 12.7692 21.1025 12.9333 20.9 12.9333H17.9667V12.5667C17.9641 11.9603 17.4731 11.4693 16.8667 11.4667C16.2591 11.4667 15.7667 11.9592 15.7667 12.5667V12.9333H6.23333V12.5667C6.23333 11.9592 5.74085 11.4667 5.13333 11.4667C4.52723 11.4701 4.03673 11.9606 4.03333 12.5667V12.9333H1.1C0.897508 12.9333 0.733333 12.7692 0.733333 12.5667V5.23334C0.733333 5.03085 0.897508 4.86667 1.1 4.86667H20.9C21.1025 4.86667 21.2667 5.03085 21.2667 5.23334V12.5667Z" fill="#15113B"/>
</svg>
