<svg width="60" height="60" viewBox="0 0 60 60" fill="none" xmlns="http://www.w3.org/2000/svg">
<path d="M47.8125 29.9999L58.125 19.6874L40.3125 1.87494L12.1875 29.9999" fill="#09D5B0"/>
<path d="M20.625 30C20.625 27.6009 21.54 25.2019 23.3709 23.3709C27.0319 19.71 32.9681 19.71 36.6291 23.3709C38.46 25.2019 39.375 27.6009 39.375 30" fill="#09D5B0"/>
<path d="M36.4002 31.3256C36.4002 30.3244 36.0102 29.3822 35.3015 28.6734C33.8858 27.2569 31.4146 27.2569 29.9999 28.6734L27.3477 26.0212C28.0799 25.2909 29.2677 25.2919 29.9999 26.0222L31.3246 24.6956C29.8639 23.235 27.4846 23.2341 26.0221 24.6956L25.3593 24.0328L24.0327 25.3594L24.6964 26.0231C23.9877 26.7309 23.5986 27.6722 23.5986 28.6744C23.5977 29.6756 23.9886 30.6178 24.6974 31.3265C25.4052 32.0344 26.3474 32.4244 27.3486 32.4244C28.3499 32.4244 29.2911 32.0344 29.999 31.3265L32.6511 33.9787C31.919 34.709 30.7311 34.7081 29.999 33.9778L28.6743 35.3044C29.4046 36.0347 30.3655 36.4003 31.3255 36.4003C32.2855 36.4003 33.2455 36.0347 33.9768 35.3044L34.6396 35.9672L35.9661 34.6406L35.3024 33.9769C36.0102 33.2681 36.4002 32.3269 36.4002 31.3256ZM28.6724 30C27.9655 30.7078 26.7289 30.7078 26.0221 30C25.6677 29.6456 25.4718 29.175 25.4727 28.6744C25.4727 28.1737 25.6677 27.7031 26.0211 27.3487L28.6724 30ZM31.3255 29.999C32.0324 29.2912 33.269 29.2912 33.9758 29.999C34.3302 30.3534 34.5252 30.824 34.5252 31.3247C34.5252 31.8253 34.3302 32.2959 33.9768 32.6503L31.3255 29.999Z" fill="#78B75B"/>
<path d="M45.2082 28.05L43.8817 26.7234L51.1736 19.4315L40.5667 8.82559L33.2748 16.1175L31.9482 14.7909L39.9029 6.83622C40.2695 6.47059 40.8629 6.46965 41.2295 6.83622L53.1629 18.7687C53.3392 18.945 53.4367 19.1831 53.4367 19.4315C53.4367 19.6809 53.3392 19.919 53.1629 20.0953L45.2082 28.05Z" fill="#669E4F"/>
<path d="M41.2524 24.0573L42.5781 22.7298L43.9056 24.0554L42.5799 25.3829L41.2524 24.0573Z" fill="#96CC7F"/>
<path d="M43.8765 21.4315L45.2023 20.1056L46.5288 21.4321L45.203 22.758L43.8765 21.4315Z" fill="#96CC7F"/>
<path d="M34.6226 17.4423L35.9501 16.1166L37.275 17.4435L35.9475 18.7691L34.6226 17.4423Z" fill="#96CC7F"/>
<path d="M37.249 14.8005L38.5749 13.4747L39.9013 14.8012L38.5755 16.127L37.249 14.8005Z" fill="#96CC7F"/>
<path d="M1.875 29.9999H58.125V54.3749H1.875V29.9999Z" fill="#09D5B0"/>
<path d="M30 51.5624C35.1777 51.5624 39.375 47.3651 39.375 42.1874C39.375 37.0098 35.1777 32.8124 30 32.8124C24.8223 32.8124 20.625 37.0098 20.625 42.1874C20.625 47.3651 24.8223 51.5624 30 51.5624Z" fill="#09D5B0"/>
<path d="M15.9375 54.3749L19.6875 58.1249L23.4375 54.3749" fill="#78B75B"/>
<path d="M30.9375 41.2499H30.9356V37.4999H30.9375C31.9706 37.4999 32.8106 38.3409 32.8106 39.3749H34.6856C34.6856 37.3068 33.0037 35.6249 30.9375 35.6249H30.9356V34.6874H29.0615V35.6249C26.9934 35.6249 25.3115 37.3068 25.3115 39.3749C25.3115 41.4421 26.9934 43.124 29.0615 43.124V46.874C28.0265 46.874 27.1865 46.0331 27.1865 44.999L25.3115 44.9999C25.3115 47.0671 26.9934 48.749 29.0615 48.749V49.6865H30.9356V48.749H30.9375C33.0037 48.749 34.6856 47.0671 34.6856 44.999C34.6856 42.9309 33.0037 41.2499 30.9375 41.2499ZM27.1865 39.3749C27.1865 38.3409 28.0265 37.4999 29.0615 37.4999V41.2499C28.0275 41.2499 27.1865 40.4081 27.1865 39.3749ZM30.9375 46.874H30.9356V43.124H30.9375C31.9706 43.124 32.8106 43.9649 32.8106 44.9999C32.8106 46.0331 31.9706 46.874 30.9375 46.874Z" fill="#669E4F"/>
<path d="M54.3731 51.5615H43.124V49.6865H53.4356V34.6874H43.124V32.8124H54.3731C54.8915 32.8124 55.3106 33.2315 55.3106 33.7499V50.6249C55.3106 51.1424 54.8915 51.5615 54.3731 51.5615Z" fill="#669E4F"/>
<path d="M16.8741 51.5624H5.625C5.10656 51.5624 4.6875 51.1424 4.6875 50.6249V33.7499C4.6875 33.2315 5.10656 32.8124 5.62406 32.8124H16.8741L16.875 34.6874H6.5625V49.6874H16.8741V51.5624Z" fill="#669E4F"/>
<path d="M43.124 45.9374H44.9981V47.8124H43.124V45.9374Z" fill="#78B75B"/>
<path d="M46.874 45.9374H48.7481V47.8124H46.874V45.9374Z" fill="#78B75B"/>
<path d="M43.124 36.5624H44.9981V38.4374H43.124V36.5624Z" fill="#78B75B"/>
<path d="M46.874 36.5624H48.7481V38.4374H46.874V36.5624Z" fill="#78B75B"/>
<path d="M11.25 36.5624H13.1241V38.4374H11.25V36.5624Z" fill="#78B75B"/>
<path d="M15 36.5624H16.8741V38.4374H15V36.5624Z" fill="#78B75B"/>
<path d="M11.25 45.9374H13.1241V47.8124H11.25V45.9374Z" fill="#78B75B"/>
<path d="M15 45.9374H16.8741V47.8124H15V45.9374Z" fill="#78B75B"/>
<path d="M58.124 29.0615H50.0756L58.7877 20.3503C58.964 20.174 59.0615 19.9359 59.0624 19.6875C59.0624 19.4381 58.964 19.2 58.7877 19.0237L40.9752 1.21123C40.6087 0.844668 40.0152 0.846543 39.6487 1.21123L11.7974 29.0615H1.87305C1.35555 29.0615 0.935547 29.4815 0.935547 29.999V54.374C0.935547 54.8915 1.35555 55.3115 1.87305 55.3115H15.5474L19.0227 58.7869C19.1999 58.9631 19.438 59.0625 19.6874 59.0615C19.9359 59.0615 20.1749 58.9631 20.3502 58.7878L23.8255 55.3125H58.124C58.6415 55.3125 59.0615 54.8925 59.0615 54.375V30C59.0615 29.4815 58.6415 29.0615 58.124 29.0615ZM40.3115 3.20061L56.7984 19.6865L47.4234 29.0615H40.2655C40.0509 26.6606 39.0168 24.4322 37.2918 22.7072C33.2699 18.6872 26.7281 18.6872 22.708 22.7072C20.9821 24.4322 19.9471 26.6615 19.7334 29.0615H14.4515L40.3115 3.20061ZM25.5243 29.0615C25.3977 28.4531 25.5684 27.8015 26.0212 27.3487L27.734 29.0615H25.5243ZM35.6371 29.0615C35.534 28.9256 35.4234 28.7953 35.3015 28.6734C33.8859 27.2569 31.4146 27.2569 29.9999 28.6734L27.3477 26.0212C28.0799 25.2909 29.2677 25.2909 29.9999 26.0222L31.3246 24.6956C29.864 23.235 27.4846 23.234 26.0221 24.6956L25.3593 24.0328L24.0327 25.3594L24.6965 26.0231C23.8724 26.8462 23.5077 27.9628 23.6249 29.0625H21.6187C21.8268 27.164 22.663 25.4053 24.0346 24.0347C27.3234 20.744 32.6765 20.745 35.9671 24.0347C37.3368 25.4044 38.173 27.164 38.3821 29.0625H35.6371V29.0615ZM19.6865 56.7984L18.2005 55.3125H21.1724L19.6865 56.7984ZM57.1865 53.4375H2.81055V30.9375H57.1865V53.4375Z" fill="#2C6582"/>
<path d="M27.1865 44.9991L25.3115 45C25.3115 47.0672 26.9934 48.7491 29.0615 48.7491V49.6866H30.9356V48.7491H30.9375C33.0037 48.7491 34.6856 47.0672 34.6856 44.9991C34.6856 42.931 33.0037 41.2491 30.9375 41.2491H30.9356V37.4991H30.9375C31.9706 37.4991 32.8106 38.34 32.8106 39.3741H34.6856C34.6856 37.306 33.0037 35.6241 30.9375 35.6241H30.9356V34.6866H29.0615V35.6241C26.9934 35.6241 25.3115 37.306 25.3115 39.3741C25.3115 41.4413 26.9934 43.1231 29.0615 43.1231V46.8731C28.0275 46.8741 27.1865 46.0331 27.1865 44.9991ZM27.1865 39.375C27.1865 38.341 28.0265 37.5 29.0615 37.5V41.25C28.0275 41.25 27.1865 40.4081 27.1865 39.375ZM30.9356 43.1241H30.9375C31.9706 43.1241 32.8106 43.965 32.8106 45C32.8106 46.0331 31.9706 46.8741 30.9375 46.8741H30.9356V43.1241Z" fill="#2C6582"/>
<path d="M29.9991 52.4991C35.6841 52.4991 40.3106 47.8725 40.3106 42.1866C40.3106 36.5006 35.6841 31.8741 29.9991 31.8741C24.3131 31.875 19.6875 36.5006 19.6875 42.1875C19.6875 47.8725 24.3131 52.4991 29.9991 52.4991ZM29.9991 33.75C34.6509 33.75 38.4356 37.5347 38.4356 42.1875C38.4356 46.8394 34.6509 50.625 29.9991 50.625C25.3463 50.625 21.5625 46.8403 21.5625 42.1875C21.5625 37.5347 25.3463 33.75 29.9991 33.75Z" fill="#2C6582"/>
<path d="M55.3106 50.624V33.7499C55.3106 33.2315 54.8915 32.8124 54.3731 32.8124H43.124V34.6874H53.4356V49.6874H43.124V51.5624H54.3731C54.8915 51.5615 55.3106 51.1424 55.3106 50.624Z" fill="#2C6582"/>
<path d="M5.625 51.5624H16.8741V49.6874H6.5625V34.6874H16.875L16.8741 32.8124H5.62406C5.10656 32.8124 4.6875 33.2315 4.6875 33.7499V50.6249C4.6875 51.1424 5.10656 51.5624 5.625 51.5624Z" fill="#2C6582"/>
<path d="M43.124 45.9374H44.9981V47.8124H43.124V45.9374Z" fill="#2C6582"/>
<path d="M46.874 45.9374H48.7481V47.8124H46.874V45.9374Z" fill="#2C6582"/>
<path d="M43.124 36.5624H44.9981V38.4374H43.124V36.5624Z" fill="#2C6582"/>
<path d="M46.874 36.5624H48.7481V38.4374H46.874V36.5624Z" fill="#2C6582"/>
<path d="M40.5667 8.82559L51.1727 19.4325L43.8808 26.7243L45.2073 28.0509L53.162 20.0962C53.3383 19.92 53.4358 19.6818 53.4358 19.4325C53.4358 19.184 53.3383 18.945 53.162 18.7697L41.2305 6.83622C40.8639 6.46965 40.2705 6.47059 39.9039 6.83622L31.9492 14.7909L33.2758 16.1175L40.5667 8.82559Z" fill="#2C6582"/>
<path d="M41.2246 24.082L42.5504 22.7561L43.8763 24.082L42.5504 25.4078L41.2246 24.082Z" fill="#2C6582"/>
<path d="M43.874 21.423L45.1998 20.0972L46.5263 21.4237L45.2005 22.7495L43.874 21.423Z" fill="#2C6582"/>
<path d="M34.6226 17.4423L35.9501 16.1166L37.275 17.4435L35.9475 18.7691L34.6226 17.4423Z" fill="#2C6582"/>
<path d="M37.249 14.8005L38.5749 13.4747L39.9013 14.8012L38.5755 16.127L37.249 14.8005Z" fill="#2C6582"/>
<path d="M11.25 36.5624H13.1241V38.4374H11.25V36.5624Z" fill="#2C6582"/>
<path d="M15 36.5624H16.8741V38.4374H15V36.5624Z" fill="#2C6582"/>
<path d="M11.25 45.9374H13.1241V47.8124H11.25V45.9374Z" fill="#2C6582"/>
<path d="M15 45.9374H16.8741V47.8124H15V45.9374Z" fill="#2C6582"/>
</svg>
