<svg width="33" height="60" viewBox="0 0 33 60" fill="none" xmlns="http://www.w3.org/2000/svg">
<path d="M27.9215 0H4.32762C1.93777 0 0 1.93777 0 4.32762V55.6724C0 58.0629 1.93712 60 4.32762 60H27.9215C30.3127 60 32.2504 58.0629 32.2504 55.6724V4.32762C32.2498 1.93777 30.3127 0 27.9215 0ZM13.2295 2.55858H19.0196C19.2276 2.55858 19.397 2.72795 19.397 2.9366C19.397 3.14461 19.2276 3.31398 19.0196 3.31398H13.2295C13.0209 3.31398 12.8521 3.14461 12.8521 2.9366C12.8521 2.72795 13.0215 2.55858 13.2295 2.55858ZM7.45806 1.65055C7.79165 1.65055 8.06212 1.92103 8.06212 2.25461C8.06212 2.5882 7.79229 2.85868 7.45806 2.85868C7.12383 2.85868 6.854 2.5882 6.854 2.25461C6.854 1.92103 7.12447 1.65055 7.45806 1.65055ZM4.7211 1.28863C5.25497 1.28863 5.68708 1.72139 5.68708 2.25461C5.68708 2.78784 5.25497 3.2206 4.7211 3.2206C4.18723 3.2206 3.75511 2.78784 3.75511 2.25461C3.75511 1.72139 4.18723 1.28863 4.7211 1.28863ZM17.6357 57.8034H14.6147C13.6565 57.8034 12.8805 57.0273 12.8805 56.0704C12.8805 55.1128 13.6565 54.3367 14.6147 54.3367H17.6357C18.594 54.3367 19.37 55.1128 19.37 56.0704C19.37 57.0273 18.594 57.8034 17.6357 57.8034ZM30.417 52.967H1.8328V7.03238H30.417V52.967Z" fill="#2C6582"/>
</svg>
