<svg width="33" height="60" viewBox="0 0 33 60" fill="none" xmlns="http://www.w3.org/2000/svg">
<rect x="1.28809" y="1.28796" width="29.6236" height="57.3152" fill="#09D5B0"/>
<path d="M27.9215 0H4.32762C1.93777 0 0 1.93777 0 4.32762V55.6724C0 58.0629 1.93712 60 4.32762 60H27.9215C30.3127 60 32.2504 58.0629 32.2504 55.6724V4.32762C32.2498 1.93777 30.3127 0 27.9215 0ZM13.2295 2.55858H19.0196C19.2276 2.55858 19.397 2.72795 19.397 2.9366C19.397 3.14461 19.2276 3.31398 19.0196 3.31398H13.2295C13.0209 3.31398 12.8521 3.14461 12.8521 2.9366C12.8521 2.72795 13.0215 2.55858 13.2295 2.55858ZM7.45806 1.65055C7.79165 1.65055 8.06212 1.92103 8.06212 2.25461C8.06212 2.5882 7.79229 2.85868 7.45806 2.85868C7.12383 2.85868 6.854 2.5882 6.854 2.25461C6.854 1.92103 7.12447 1.65055 7.45806 1.65055ZM4.7211 1.28863C5.25497 1.28863 5.68708 1.72139 5.68708 2.25461C5.68708 2.78784 5.25497 3.2206 4.7211 3.2206C4.18723 3.2206 3.75511 2.78784 3.75511 2.25461C3.75511 1.72139 4.18723 1.28863 4.7211 1.28863ZM17.6357 57.8034H14.6147C13.6565 57.8034 12.8805 57.0273 12.8805 56.0704C12.8805 55.1128 13.6565 54.3367 14.6147 54.3367H17.6357C18.594 54.3367 19.37 55.1128 19.37 56.0704C19.37 57.0273 18.594 57.8034 17.6357 57.8034ZM30.417 52.967H1.8328V7.03238H30.417V52.967Z" fill="#2C6582"/>
<path fill-rule="evenodd" clip-rule="evenodd" d="M12.38 22.7641V18.8633C12.38 18.4263 12.0367 18.0831 11.5998 18.0831C11.1629 18.0831 10.8196 18.4263 10.8196 18.8633V22.7641H9.25876V18.8634C9.25876 18.4321 8.90983 18.0832 8.47861 18.0832C8.04739 18.0832 7.69845 18.4321 7.69845 18.8634V22.7641H7.69824V25.1045C7.69824 26.3995 8.7436 27.445 10.0387 27.445H10.8196V31.3458C10.8196 31.7826 11.1629 32.1259 11.5998 32.1259C12.0367 32.1259 12.38 31.7826 12.38 31.3458V27.445H13.1593C14.4544 27.445 15.4998 26.3995 15.4998 25.1045V22.7642L15.4999 22.7641V18.8633C15.4999 18.4321 15.151 18.0831 14.7197 18.0831C14.2885 18.0831 13.9396 18.4321 13.9396 18.8633V22.7641L13.9396 22.7641H12.38Z" fill="white"/>
<path d="M23.0935 39.9275C22.2318 39.9275 21.5332 39.229 21.5332 38.3672V32.126L23.0935 30.5657L24.6538 32.126V38.3672C24.6538 39.2289 23.9553 39.9275 23.0935 39.9275Z" fill="#2C6582"/>
<path d="M24.3267 18.2235C24.1238 18.0831 23.8586 18.0363 23.6246 18.1299C22.8599 18.3796 22.1579 18.7384 21.5337 19.2065C19.6146 20.6108 18.4131 22.8733 18.4131 25.3541V31.3458C18.4131 31.7826 18.7563 32.1259 19.1932 32.1259H24.6543V18.8633C24.6544 18.6136 24.5295 18.3796 24.3267 18.2235Z" fill="white"/>
<rect x="9.57031" y="30.5647" width="4.05681" height="9.36186" rx="2.0284" fill="#2C6582"/>
</svg>
